<svg width="26" height="26" viewBox="0 0 26 26" fill="none" xmlns="http://www.w3.org/2000/svg">
<path d="M7.55254 0H18.4474C22.6119 0 26 3.38807 26 7.55259V18.4474C26 22.6119 22.6119 26 18.4474 26H7.55259C3.38807 26 0 22.6119 0 18.4475V7.55259C0 3.38807 3.38807 0 7.55254 0ZM2.03125 18.4474C2.03125 21.4919 4.5081 23.9688 7.55254 23.9688H18.4474C21.4919 23.9688 23.9688 21.4919 23.9688 18.4475V7.55259C23.9688 4.50811 21.4919 2.03125 18.4474 2.03125H7.55259C4.50811 2.03125 2.03125 4.50811 2.03125 7.55259V18.4474Z" fill="#8FFFE4"/>
<path d="M13 5.99219C16.8641 5.99219 20.0078 9.13585 20.0078 13C20.0078 16.8641 16.8641 20.0078 13 20.0078C9.13585 20.0078 5.99219 16.8641 5.99219 13C5.99219 9.13585 9.13585 5.99219 13 5.99219ZM13 17.9766C15.7441 17.9766 17.9766 15.7441 17.9766 13C17.9766 10.2559 15.7441 8.02344 13 8.02344C10.2559 8.02344 8.02344 10.2559 8.02344 13C8.02344 15.7441 10.2559 17.9766 13 17.9766Z" fill="#8FFFE4"/>
<path d="M5.89062 6.90625C5.32971 6.90625 4.875 6.45154 4.875 5.89062C4.875 5.32971 5.32971 4.875 5.89062 4.875C6.45154 4.875 6.90625 5.32971 6.90625 5.89062C6.90625 6.45154 6.45154 6.90625 5.89062 6.90625Z" fill="#8FFFE4"/>
</svg>
