<svg width="70" height="70" viewBox="0 0 70 70" fill="none" xmlns="http://www.w3.org/2000/svg">
<circle cx="35" cy="35" r="34" stroke="#3E4652" stroke-width="2"/>
<path d="M35.3638 33.43C36.2438 33.63 36.9338 33.81 37.4338 33.97C37.9538 34.11 38.6038 34.36 39.3838 34.72C40.1638 35.06 40.7638 35.44 41.1838 35.86C41.6038 36.28 41.9738 36.85 42.2938 37.57C42.6338 38.29 42.8038 39.11 42.8038 40.03C42.8038 41.85 42.2038 43.29 41.0038 44.35C39.8038 45.39 38.2738 46.03 36.4138 46.27V48.58C36.4138 48.88 36.2738 49.03 35.9938 49.03H33.9538C33.6538 49.03 33.5038 48.88 33.5038 48.58V46.3C31.4038 46.08 29.3538 45.13 27.3538 43.45C27.1138 43.25 27.0938 43.04 27.2938 42.82L28.7638 40.78C28.9438 40.54 29.1438 40.51 29.3638 40.69C31.3038 42.13 33.1738 42.88 34.9738 42.94C36.1138 42.94 37.0938 42.69 37.9138 42.19C38.7538 41.67 39.1738 40.93 39.1738 39.97C39.1738 39.55 39.0838 39.18 38.9038 38.86C38.7238 38.54 38.5138 38.28 38.2738 38.08C38.0338 37.88 37.6638 37.69 37.1638 37.51C36.6838 37.33 36.2638 37.2 35.9038 37.12C35.5638 37.02 35.0638 36.9 34.4038 36.76C33.4838 36.56 32.6738 36.33 31.9738 36.07C31.2738 35.81 30.5438 35.45 29.7838 34.99C29.0238 34.51 28.4338 33.89 28.0138 33.13C27.5938 32.35 27.3838 31.44 27.3838 30.4C27.3838 28.62 27.9438 27.22 29.0638 26.2C30.1838 25.16 31.6638 24.52 33.5038 24.28V22.15C33.5038 21.85 33.6538 21.7 33.9538 21.7H35.9938C36.2738 21.7 36.4138 21.85 36.4138 22.15V24.25C38.2938 24.45 40.1838 25.24 42.0838 26.62C42.3238 26.76 42.3638 26.96 42.2038 27.22L40.7938 29.26C40.6338 29.48 40.4238 29.51 40.1638 29.35C38.5238 28.23 36.7638 27.64 34.8838 27.58C33.6638 27.58 32.7038 27.84 32.0038 28.36C31.3038 28.88 30.9538 29.59 30.9538 30.49C30.9538 30.85 31.0338 31.18 31.1938 31.48C31.3538 31.76 31.5438 31.99 31.7638 32.17C31.9838 32.35 32.3138 32.53 32.7538 32.71C33.1938 32.87 33.5838 33 33.9238 33.1C34.2638 33.18 34.7438 33.29 35.3638 33.43Z" fill="#8FFFE4"/>
</svg>
