<svg width="70" height="70" viewBox="0 0 70 70" fill="none" xmlns="http://www.w3.org/2000/svg">
<rect x="1" y="1" width="68" height="68" rx="4" stroke="#3E4652" stroke-width="2"/>
<path d="M45.2663 28.6101C45.1712 28.3808 45.0547 28.1648 44.9192 27.9644H46.9531C48.9346 27.9644 50.5468 26.3331 50.5468 24.328C50.5468 22.323 48.9346 20.6917 46.9531 20.6917H40.6968C41.0946 20.1066 41.3281 19.3986 41.3281 18.6364C41.3281 16.6313 39.7159 15 37.7343 15H18.5937C16.6122 15 15 16.6313 15 18.6364C15 20.6414 16.6122 22.2727 18.5937 22.2727H24.85C24.4522 22.8579 24.2187 23.5658 24.2187 24.328C24.2187 25.0903 24.4522 25.7982 24.85 26.3834H22.8125C20.8309 26.3834 19.2187 28.0147 19.2187 30.0197C19.2187 31.1713 19.7511 32.1989 20.5793 32.8656C19.7511 33.5323 19.2187 34.5599 19.2187 35.7114C19.2187 36.863 19.7511 37.8905 20.5793 38.5573C19.7511 39.224 19.2187 40.2516 19.2187 41.4031C19.2187 42.5546 19.7511 43.5822 20.5793 44.249C19.7511 44.9157 19.2187 45.9433 19.2187 47.0948C19.2187 49.0999 20.8309 50.7312 22.8125 50.7312H32.0195C34.445 53.3562 37.8954 55 41.7188 55C49.042 55 55 48.9714 55 41.5613C55 35.394 50.8727 30.1844 45.2663 28.6101ZM46.9531 22.2727C48.0731 22.2727 48.9843 23.1948 48.9843 24.328C48.9843 25.4613 48.0731 26.3834 46.9531 26.3834H41.9531H27.8125C26.6924 26.3834 25.7812 25.4613 25.7812 24.328C25.7812 23.1948 26.6924 22.2727 27.8125 22.2727H46.9531ZM18.5937 20.6917C17.4737 20.6917 16.5625 19.7696 16.5625 18.6364C16.5625 17.5031 17.4737 16.581 18.5937 16.581H37.7343C38.8544 16.581 39.7656 17.5031 39.7656 18.6364C39.7656 19.7696 38.8544 20.6917 37.7343 20.6917H18.5937ZM22.8125 27.9644H41.9531C42.2678 27.9644 42.5691 28.0384 42.8394 28.1709C42.4699 28.1395 42.0963 28.1226 41.7188 28.1226C38.0512 28.1226 34.7262 29.6348 32.3204 32.0751H22.8125C21.6925 32.0751 20.7812 31.153 20.7812 30.0197C20.7812 28.8865 21.6925 27.9644 22.8125 27.9644ZM22.8125 33.6561H30.9855C30.0986 34.8856 29.4129 36.2723 28.9775 37.7668H22.8125C21.6924 37.7668 20.7812 36.8448 20.7812 35.7114C20.7812 34.5781 21.6924 33.6561 22.8125 33.6561ZM22.8125 39.3478H28.6187C28.5002 40.0682 28.4376 40.8074 28.4376 41.5613C28.4376 42.2052 28.4836 42.8384 28.5705 43.4584H22.8125C21.6924 43.4584 20.7812 42.5365 20.7812 41.4031C20.7812 40.2698 21.6924 39.3478 22.8125 39.3478ZM22.8125 49.1501C21.6924 49.1501 20.7812 48.2282 20.7812 47.0948C20.7812 45.9614 21.6924 45.0395 22.8125 45.0395H28.8895C29.2837 46.5267 29.9241 47.9127 30.764 49.1501H22.8125ZM41.7188 53.419C35.2571 53.419 30.0001 48.0996 30.0001 41.5613C30.0001 35.023 35.2571 29.7036 41.7188 29.7036C48.1805 29.7036 53.4375 35.023 53.4375 41.5613C53.4375 48.0996 48.1805 53.419 41.7188 53.419Z" fill="#8FFFE4"/>
<path d="M37.752 45H35.768C35.6933 45 35.656 44.96 35.656 44.88V39.4C35.656 39.32 35.6933 39.28 35.768 39.28H37.752C38.4293 39.28 38.9573 39.4613 39.336 39.824C39.72 40.1813 39.912 40.704 39.912 41.392V42.912C39.912 43.5893 39.72 44.1067 39.336 44.464C38.9573 44.8213 38.4293 45 37.752 45ZM36.624 40.168V44.096H37.752C38.5253 44.096 38.912 43.704 38.912 42.92V41.384C38.912 40.5733 38.5253 40.168 37.752 40.168H36.624ZM42.0068 42.536V44.12H44.5748C44.6548 44.12 44.6948 44.1573 44.6948 44.232V44.88C44.6948 44.96 44.6548 45 44.5748 45H41.1508C41.0761 45 41.0388 44.96 41.0388 44.88V39.4C41.0388 39.32 41.0761 39.28 41.1508 39.28H44.4628C44.5428 39.28 44.5828 39.32 44.5828 39.4V40.048C44.5828 40.1227 44.5428 40.16 44.4628 40.16H42.0068V41.656H44.2548C44.3348 41.656 44.3748 41.696 44.3748 41.776V42.416C44.3748 42.496 44.3348 42.536 44.2548 42.536H42.0068ZM49.0463 45H45.8383C45.7636 45 45.7263 44.96 45.7263 44.88V39.4C45.7263 39.32 45.7636 39.28 45.8383 39.28H46.5823C46.657 39.28 46.6943 39.32 46.6943 39.4V44.112H49.0463C49.1263 44.112 49.1663 44.1493 49.1663 44.224V44.88C49.1663 44.96 49.1263 45 49.0463 45Z" fill="#8FFFE4"/>
</svg>
