<svg width="70" height="70" viewBox="0 0 70 70" fill="none" xmlns="http://www.w3.org/2000/svg">
<rect x="1" y="1" width="68" height="68" rx="4" stroke="#3E4652" stroke-width="2"/>
<path d="M25.2502 25.7584L24.6602 23.4873L20.9048 24.4614C22.2806 22.6107 24.0141 21.0378 26.0123 19.8448C30.0495 17.4346 34.7845 16.7395 39.3447 17.8877C43.905 19.036 47.7449 21.89 50.1571 25.9241C51.7986 28.6696 52.6614 31.8017 52.6521 34.9817L55.0003 34.9885C55.0108 31.3826 54.0331 27.832 52.1728 24.7206C49.439 20.1484 45.0869 16.9138 39.9184 15.6125C34.7498 14.3111 29.3836 15.0988 24.8079 17.8306C22.5295 19.191 20.5533 20.9866 18.9893 23.1017L18.0862 19.6259L15.8135 20.2155L17.7583 27.7017L25.2502 25.7584Z" fill="#8FFFE4"/>
<path d="M44.7433 44.2488L45.3316 46.5203L49.0878 45.5489C47.7106 47.3987 45.9759 48.9703 43.9769 50.1618C39.938 52.5691 35.2028 53.2609 30.6431 52.1091C26.0836 50.9575 22.2458 48.1008 19.8367 44.0648C18.197 41.3181 17.3366 38.1854 17.3483 35.0054L15.0001 34.9968C14.9869 38.6029 15.962 42.1542 17.82 45.2668C20.5505 49.841 24.9001 53.0789 30.0677 54.384C31.7 54.7963 33.3517 55 34.9925 55C38.5466 55 42.0481 54.0435 45.1798 52.1769C47.4593 50.8182 49.4368 49.0239 51.0024 46.9101L51.9028 50.3865L54.176 49.7986L52.2367 42.3109L44.7433 44.2488Z" fill="#8FFFE4"/>
<path d="M28.652 39H25.957C25.8103 39 25.737 38.9267 25.737 38.78V31.355C25.737 31.2083 25.8103 31.135 25.957 31.135H28.652C30.8153 31.135 31.897 32.202 31.897 34.336V35.799C31.897 36.305 31.8347 36.7523 31.71 37.141C31.5927 37.5223 31.435 37.8303 31.237 38.065C31.0463 38.2923 30.808 38.4793 30.522 38.626C30.236 38.7727 29.9427 38.8717 29.642 38.923C29.3487 38.9743 29.0187 39 28.652 39ZM27.882 33.148V36.987H28.696C29.3633 36.987 29.697 36.635 29.697 35.931V34.193C29.697 33.4963 29.3633 33.148 28.696 33.148H27.882ZM36.3834 35.964V37.075H39.4194C39.566 37.075 39.6394 37.1483 39.6394 37.295V38.78C39.6394 38.9267 39.566 39 39.4194 39H34.4584C34.3117 39 34.2384 38.9267 34.2384 38.78V31.355C34.2384 31.2083 34.3117 31.135 34.4584 31.135H39.2324C39.379 31.135 39.4524 31.2083 39.4524 31.355V32.84C39.4524 32.9867 39.379 33.06 39.2324 33.06H36.3834V34.083H38.8034C38.95 34.083 39.0234 34.1563 39.0234 34.303V35.744C39.0234 35.8907 38.95 35.964 38.8034 35.964H36.3834ZM46.8408 39H42.1218C41.9752 39 41.9018 38.9267 41.9018 38.78V31.355C41.9018 31.2083 41.9752 31.135 42.1218 31.135H43.8268C43.9735 31.135 44.0468 31.2083 44.0468 31.355V36.998H46.8408C46.9875 36.998 47.0608 37.0713 47.0608 37.218V38.78C47.0608 38.9267 46.9875 39 46.8408 39Z" fill="#8FFFE4"/>
</svg>
