<svg width="80" height="80" viewBox="0 0 80 80" fill="none" xmlns="http://www.w3.org/2000/svg">
<circle cx="40" cy="40" r="39" stroke="#3E4652" stroke-width="2"/>
<path d="M41.7888 44.25C41.7888 46.57 41.0988 48.33 39.7188 49.53C38.3388 50.73 36.6488 51.33 34.6488 51.33C32.6288 51.33 30.9188 50.73 29.5188 49.53C28.1388 48.33 27.4487 46.57 27.4487 44.25V36.24C27.4487 33.94 28.1388 32.2 29.5188 31.02C30.9188 29.82 32.6288 29.22 34.6488 29.22C36.6488 29.22 38.3388 29.82 39.7188 31.02C41.0988 32.2 41.7888 33.94 41.7888 36.24V44.25ZM29.9388 44.34C29.9388 45.9 30.3888 47.06 31.2888 47.82C32.1888 48.56 33.3088 48.93 34.6488 48.93C35.9688 48.93 37.0688 48.56 37.9488 47.82C38.8488 47.06 39.2988 45.9 39.2988 44.34V36.33C39.2988 34.71 38.8588 33.52 37.9788 32.76C37.0988 32 35.9888 31.62 34.6488 31.62C33.2888 31.62 32.1588 32 31.2588 32.76C30.3788 33.52 29.9388 34.71 29.9388 36.33V44.34ZM51.5193 51H49.7493C49.5093 51 49.3893 50.89 49.3893 50.67V32.52L45.6993 34.98C45.4993 35.1 45.3393 35.07 45.2193 34.89L44.3793 33.51C44.2393 33.35 44.2693 33.19 44.4693 33.03L49.5393 29.67C49.6793 29.59 49.8293 29.55 49.9893 29.55H51.5193C51.7593 29.55 51.8793 29.66 51.8793 29.88V50.67C51.8793 50.89 51.7593 51 51.5193 51Z" fill="white"/>
</svg>
