<svg width="80" height="80" viewBox="0 0 80 80" fill="none" xmlns="http://www.w3.org/2000/svg">
<circle cx="40" cy="40" r="39" stroke="#3E4652" stroke-width="2"/>
<path d="M38.6979 44.25C38.6979 46.57 38.0079 48.33 36.6279 49.53C35.2479 50.73 33.5579 51.33 31.5579 51.33C29.5379 51.33 27.8279 50.73 26.4279 49.53C25.0479 48.33 24.3579 46.57 24.3579 44.25V36.24C24.3579 33.94 25.0479 32.2 26.4279 31.02C27.8279 29.82 29.5379 29.22 31.5579 29.22C33.5579 29.22 35.2479 29.82 36.6279 31.02C38.0079 32.2 38.6979 33.94 38.6979 36.24V44.25ZM26.8479 44.34C26.8479 45.9 27.2979 47.06 28.1979 47.82C29.0979 48.56 30.2179 48.93 31.5579 48.93C32.8779 48.93 33.9779 48.56 34.8579 47.82C35.7579 47.06 36.2079 45.9 36.2079 44.34V36.33C36.2079 34.71 35.7679 33.52 34.8879 32.76C34.0079 32 32.8979 31.62 31.5579 31.62C30.1979 31.62 29.0679 32 28.1679 32.76C27.2879 33.52 26.8479 34.71 26.8479 36.33V44.34ZM56.1385 44.34C56.1385 46.46 55.4585 48.15 54.0985 49.41C52.7585 50.67 51.0285 51.3 48.9085 51.3C47.3685 51.3 46.0385 51.05 44.9185 50.55C43.8185 50.03 42.7785 49.29 41.7985 48.33C41.6385 48.17 41.6385 48.01 41.7985 47.85L42.8185 46.74C42.9985 46.58 43.1685 46.58 43.3285 46.74C44.2285 47.5 45.0785 48.06 45.8785 48.42C46.6785 48.78 47.6885 48.96 48.9085 48.96C50.3285 48.96 51.4685 48.55 52.3285 47.73C53.1885 46.91 53.6185 45.77 53.6185 44.31C53.6185 42.89 53.1785 41.8 52.2985 41.04C51.4385 40.28 50.2085 39.9 48.6085 39.9C48.0485 39.9 47.4385 39.96 46.7785 40.08C46.5785 40.12 46.4485 40.04 46.3885 39.84L45.9985 39.03C45.8985 38.87 45.9185 38.71 46.0585 38.55L49.8985 34.38C51.0185 33.14 51.8385 32.3 52.3585 31.86H43.0885C42.8685 31.86 42.7585 31.74 42.7585 31.5V29.88C42.7585 29.66 42.8685 29.55 43.0885 29.55H55.2985C55.5185 29.55 55.6285 29.66 55.6285 29.88V31.05C55.6285 31.19 55.5785 31.33 55.4785 31.47L49.2985 38.13L49.5085 38.16C51.3885 38.12 52.9585 38.66 54.2185 39.78C55.4985 40.9 56.1385 42.42 56.1385 44.34Z" fill="white"/>
</svg>
