<svg width="70" height="70" viewBox="0 0 70 70" fill="none" xmlns="http://www.w3.org/2000/svg">
<circle cx="35" cy="35" r="34" stroke="#3E4652" stroke-width="2"/>
<path d="M36.1463 40.12H33.8663C33.5663 40.12 33.4163 39.98 33.4163 39.7L33.1763 30.46V25C33.1763 24.7 33.3163 24.55 33.5963 24.55H36.3863C36.6863 24.55 36.8363 24.7 36.8363 25V30.46L36.5963 39.7C36.5963 39.98 36.4463 40.12 36.1463 40.12ZM36.6263 42.4C37.0663 42.84 37.2863 43.38 37.2863 44.02C37.2863 44.66 37.0663 45.2 36.6263 45.64C36.1863 46.08 35.6463 46.3 35.0063 46.3C34.3463 46.3 33.7963 46.08 33.3563 45.64C32.9363 45.2 32.7263 44.66 32.7263 44.02C32.7263 43.38 32.9363 42.84 33.3563 42.4C33.7963 41.96 34.3463 41.74 35.0063 41.74C35.6463 41.74 36.1863 41.96 36.6263 42.4Z" fill="#8FFFE4"/>
</svg>
