<svg width="27" height="27" viewBox="0 0 27 27" fill="none" xmlns="http://www.w3.org/2000/svg">
<path d="M7.05746 10.5598L7.05747 10.5597C7.18841 9.67819 7.01458 8.73706 6.57008 7.90795C6.12563 7.07895 5.4544 6.4437 4.67605 6.12329L4.67603 6.12329C3.84129 5.77987 2.98338 5.83304 2.26475 6.27977L2.26474 6.27979C0.836869 7.16784 0.482661 9.33214 1.4261 11.092C1.87035 11.9209 2.5415 12.5562 3.31973 12.8765C3.66564 13.0217 4.03355 13.0975 4.4052 13.1L4.40548 13.1C4.87137 13.1018 5.3289 12.9705 5.73136 12.7201C6.44864 12.2739 6.91701 11.5036 7.05746 10.5598ZM3.59253 7.68179L3.59259 7.6818C3.75782 7.68364 3.9215 7.71798 4.07565 7.78332L4.07565 7.78332L4.07662 7.78372C4.4919 7.95464 4.86552 8.31039 5.1237 8.79209C5.38174 9.27355 5.48239 9.80273 5.41149 10.2807C5.34903 10.7007 5.16004 11.0158 4.8924 11.1822C4.62617 11.3478 4.28319 11.3656 3.91927 11.216C3.50401 11.0452 3.13039 10.6894 2.87221 10.2077C2.62463 9.74574 2.53127 9.23757 2.57765 8.79873C2.62419 8.3585 2.80905 8.0011 3.10328 7.81788C3.25289 7.72651 3.42166 7.67978 3.59253 7.68179Z" fill="#7C7474" stroke="#7C7474" stroke-width="0.2"/>
<path d="M7.34161 7.41491L7.3416 7.41491C6.66831 6.87132 6.19137 6.06961 5.99539 5.15908C5.57898 3.22462 6.56694 1.3297 8.23815 0.962888C9.07677 0.778729 9.93686 1.00268 10.6584 1.58513L10.5956 1.66294L10.6584 1.58513C11.3317 2.12872 11.8087 2.93043 12.0046 3.84092M7.34161 7.41491L11.9068 3.86196M7.34161 7.41491C7.89764 7.86376 8.53611 8.10005 9.18482 8.1H9.18484C9.37887 8.09994 9.57233 8.07886 9.76189 8.03714M7.34161 7.41491L9.7404 7.93948M12.0046 3.84092L11.9068 3.86196M12.0046 3.84092C12.0046 3.84092 12.0046 3.84091 12.0046 3.84091L11.9068 3.86196M12.0046 3.84092C12.421 5.77536 11.4331 7.67025 9.76189 8.03714M11.9068 3.86196C12.3151 5.75846 11.3433 7.58763 9.7404 7.93948M9.76189 8.03714L9.7404 7.93948M9.76189 8.03714C9.76187 8.03714 9.76185 8.03715 9.76184 8.03715L9.7404 7.93948M8.5826 2.56135C8.65651 2.54526 8.73191 2.53722 8.80752 2.53736C9.09023 2.53736 9.38102 2.64904 9.64581 2.86281L7.57947 4.81211C7.35318 3.76098 7.81261 2.73039 8.5826 2.56135ZM8.5826 2.56135L8.60388 2.65906C8.67074 2.64451 8.73895 2.63723 8.80733 2.63736H8.80752C9.06333 2.63736 9.33257 2.73845 9.58299 2.94062L9.583 2.94062C9.94476 3.23264 10.2093 3.68208 10.3228 4.2095L10.3228 4.20951C10.4317 4.71553 10.3749 5.21413 10.2012 5.60366C10.0272 5.9939 9.74128 6.26544 9.39589 6.34125C9.08179 6.41019 8.73443 6.31624 8.41704 6.05996L8.41704 6.05996C8.05527 5.76788 7.79072 5.31844 7.67724 4.79107L7.67723 4.79106C7.56826 4.28489 7.62513 3.78622 7.79877 3.39666C7.97272 3.00638 8.25868 2.73485 8.60405 2.65903L8.5826 2.56135Z" fill="#7C7474" stroke="#7C7474" stroke-width="0.2"/>
<path d="M22.7352 6.27978L22.7352 6.27978C24.1631 7.16784 24.5173 9.33214 23.574 11.092C23.574 11.092 23.574 11.092 23.574 11.092L23.4858 11.0448C23.051 11.8561 22.3961 12.4739 21.6419 12.7842L22.7352 6.27978ZM22.7352 6.27978C22.0168 5.83304 21.1585 5.77987 20.3239 6.12329L20.3239 6.12329C19.5455 6.4436 18.8742 7.07895 18.4299 7.90796C17.9855 8.73706 17.8116 9.67839 17.9425 10.5597L17.9425 10.5597C18.0828 11.5036 18.551 12.2739 19.2686 12.7201C19.6711 12.9705 20.1286 13.1018 20.5945 13.1L20.5948 13.1C20.9664 13.0975 21.3344 13.0217 21.6803 12.8766L22.7352 6.27978ZM21.0806 11.216L21.0806 11.216C20.7169 11.3657 20.3739 11.3479 20.1076 11.1823C19.84 11.0157 19.6511 10.7008 19.5885 10.2807C19.5175 9.80275 19.6181 9.27376 19.8762 8.79256C20.1344 8.31107 20.508 7.95508 20.9233 7.78416L20.9233 7.78417L20.9243 7.78375C21.0784 7.71835 21.2421 7.68394 21.4074 7.68204L21.4074 7.68204C21.5783 7.68003 21.7471 7.72676 21.8967 7.81814C22.1909 8.00119 22.3758 8.35845 22.4223 8.79863C22.4688 9.23742 22.3754 9.74562 22.1277 10.2077C21.8695 10.6894 21.4959 11.0452 21.0806 11.216Z" fill="#7C7474" stroke="#7C7474" stroke-width="0.2"/>
<path d="M15.2381 8.03714C13.5669 7.67025 12.579 5.77533 12.9954 3.84087L15.2381 8.03714ZM15.2381 8.03714C15.4277 8.07886 15.6211 8.09994 15.8152 8.1H15.8152M15.2381 8.03714L15.8152 8.1M15.8152 8.1C16.4638 8.1 17.1025 7.86376 17.6584 7.41489M15.8152 8.1L17.6584 7.41489M17.6584 7.41489C18.3317 6.87135 18.8086 6.06958 19.0046 5.15909M17.6584 7.41489L19.0046 5.15909M19.0046 5.15909C19.421 3.22461 18.4331 1.32967 16.7619 0.962855M19.0046 5.15909L16.7619 0.962855M16.7619 0.962855C15.9233 0.778793 15.0632 1.00259 14.3416 1.58511M16.7619 0.962855L14.3416 1.58511M14.3416 1.58511C13.6683 2.12865 13.1913 2.93042 12.9954 3.84086L16.7404 1.06053C15.9344 0.88362 15.1048 1.09749 14.4044 1.66292L14.3416 1.58511ZM14.6772 4.20923L14.6772 4.20921C14.7907 3.68177 15.0553 3.23216 15.417 2.94034L15.417 2.94032C15.6675 2.73814 15.9367 2.63705 16.1925 2.63705L16.1927 2.63705C16.261 2.63693 16.3292 2.6442 16.3961 2.65875C16.7414 2.73459 17.0273 3.00617 17.2012 3.39642C17.3749 3.78599 17.4318 4.2846 17.3229 4.79049C17.2093 5.31794 16.9447 5.76757 16.5831 6.05944L16.5831 6.05946C16.2657 6.31569 15.9186 6.40966 15.6042 6.34075C15.2588 6.26504 14.9728 5.99354 14.7988 5.6033C14.6251 5.21378 14.5683 4.71518 14.6772 4.20923Z" fill="#7C7474" stroke="#7C7474" stroke-width="0.2"/>
<path d="M18.1711 13.3785L18.1703 13.3712L18.1684 13.3641C17.8265 12.0819 17.0873 10.9505 16.0635 10.1438C15.0397 9.33717 13.7878 8.9 12.5 8.9C11.2122 8.9 9.96031 9.33717 8.93645 10.1438C7.91265 10.9505 7.17347 12.0819 6.83161 13.3641L6.02992 16.3709C5.88214 16.9252 5.8601 17.5072 5.9655 18.0717C6.07089 18.6362 6.30092 19.1681 6.63788 19.6259C6.97485 20.0838 7.40969 20.4552 7.90871 20.711C8.40774 20.9668 8.95734 21.1 9.5146 21.1H11.2727C11.7296 21.1 12.1 20.7296 12.1 20.2727C12.1 19.8158 11.7296 19.4455 11.2727 19.4455H9.5146C9.2058 19.4455 8.90104 19.3717 8.62403 19.2297C8.34701 19.0877 8.10512 18.8812 7.9174 18.6262C7.72967 18.3711 7.60125 18.0744 7.54238 17.7591C7.48352 17.4438 7.49584 17.1187 7.57837 16.8092L7.48174 16.7834L7.57837 16.8092L8.38005 13.8024C8.62919 12.868 9.16758 12.0446 9.91192 11.4582C10.6562 10.8718 11.5654 10.5546 12.5 10.5546C13.4346 10.5546 14.3438 10.8718 15.0881 11.4582C15.8324 12.0446 16.3708 12.868 16.62 13.8024L16.6226 13.8123L16.6271 13.8214C16.7985 14.1642 17.0291 14.2862 17.2387 14.3116C17.3396 14.3238 17.4305 14.313 17.4994 14.3003C17.5287 14.2948 17.555 14.2888 17.5754 14.2842C17.5788 14.2834 17.582 14.2827 17.5851 14.282C17.5999 14.2786 17.6079 14.2771 17.6116 14.2764C17.6145 14.2758 17.6147 14.2758 17.6133 14.2758H17.6333L17.6517 14.2681L17.6983 14.2487C17.6984 14.2487 17.6984 14.2486 17.6985 14.2486C17.8981 14.1661 18.0306 14.0406 18.1052 13.8836C18.1786 13.7291 18.1912 13.5541 18.1711 13.3785Z" fill="#7C7474" stroke="#7C7474" stroke-width="0.2"/>
<mask id="path-6-outside-1" maskUnits="userSpaceOnUse" x="13.3125" y="15.3125" width="11" height="11" fill="black">
<rect fill="white" x="13.3125" y="15.3125" width="11" height="11"/>
<path fill-rule="evenodd" clip-rule="evenodd" d="M18.464 17.0044V20.464H15.0044C14.6223 20.464 14.3125 20.7738 14.3125 21.1559C14.3125 21.538 14.6223 21.8478 15.0044 21.8478H18.464V25.3074C18.464 25.6895 18.7738 25.9993 19.1559 25.9993C19.538 25.9993 19.8478 25.6895 19.8478 25.3074V21.8478H23.3074C23.6895 21.8478 23.9993 21.538 23.9993 21.1559C23.9993 20.7738 23.6895 20.464 23.3074 20.464H19.8478V17.0044C19.8478 16.6223 19.538 16.3125 19.1559 16.3125C18.7738 16.3125 18.464 16.6223 18.464 17.0044Z"/>
</mask>
<path fill-rule="evenodd" clip-rule="evenodd" d="M18.464 17.0044V20.464H15.0044C14.6223 20.464 14.3125 20.7738 14.3125 21.1559C14.3125 21.538 14.6223 21.8478 15.0044 21.8478H18.464V25.3074C18.464 25.6895 18.7738 25.9993 19.1559 25.9993C19.538 25.9993 19.8478 25.6895 19.8478 25.3074V21.8478H23.3074C23.6895 21.8478 23.9993 21.538 23.9993 21.1559C23.9993 20.7738 23.6895 20.464 23.3074 20.464H19.8478V17.0044C19.8478 16.6223 19.538 16.3125 19.1559 16.3125C18.7738 16.3125 18.464 16.6223 18.464 17.0044Z" fill="#7C7474"/>
<path d="M18.464 20.464V20.764H18.764V20.464H18.464ZM18.464 21.8478H18.764V21.5478H18.464V21.8478ZM19.8478 21.8478V21.5478H19.5478V21.8478H19.8478ZM19.8478 20.464H19.5478V20.764H19.8478V20.464ZM18.764 20.464V17.0044H18.164V20.464H18.764ZM15.0044 20.764H18.464V20.164H15.0044V20.764ZM14.6125 21.1559C14.6125 20.9395 14.788 20.764 15.0044 20.764V20.164C14.4566 20.164 14.0125 20.6081 14.0125 21.1559H14.6125ZM15.0044 21.5478C14.788 21.5478 14.6125 21.3723 14.6125 21.1559H14.0125C14.0125 21.7037 14.4566 22.1478 15.0044 22.1478V21.5478ZM18.464 21.5478H15.0044V22.1478H18.464V21.5478ZM18.764 25.3074V21.8478H18.164V25.3074H18.764ZM19.1559 25.6993C18.9395 25.6993 18.764 25.5238 18.764 25.3074H18.164C18.164 25.8552 18.6081 26.2993 19.1559 26.2993V25.6993ZM19.5478 25.3074C19.5478 25.5238 19.3723 25.6993 19.1559 25.6993V26.2993C19.7037 26.2993 20.1478 25.8552 20.1478 25.3074H19.5478ZM19.5478 21.8478V25.3074H20.1478V21.8478H19.5478ZM23.3074 21.5478H19.8478V22.1478H23.3074V21.5478ZM23.6993 21.1559C23.6993 21.3723 23.5238 21.5478 23.3074 21.5478V22.1478C23.8552 22.1478 24.2993 21.7037 24.2993 21.1559H23.6993ZM23.3074 20.764C23.5238 20.764 23.6993 20.9395 23.6993 21.1559H24.2993C24.2993 20.6081 23.8552 20.164 23.3074 20.164V20.764ZM19.8478 20.764H23.3074V20.164H19.8478V20.764ZM19.5478 17.0044V20.464H20.1478V17.0044H19.5478ZM19.1559 16.6125C19.3723 16.6125 19.5478 16.788 19.5478 17.0044H20.1478C20.1478 16.4566 19.7037 16.0125 19.1559 16.0125V16.6125ZM18.764 17.0044C18.764 16.788 18.9395 16.6125 19.1559 16.6125V16.0125C18.6081 16.0125 18.164 16.4566 18.164 17.0044H18.764Z" fill="#7C7474" mask="url(#path-6-outside-1)"/>
</svg>
