<svg width="70" height="70" viewBox="0 0 70 70" fill="none" xmlns="http://www.w3.org/2000/svg">
<circle cx="35" cy="35" r="34" stroke="#3E4652" stroke-width="2"/>
<path d="M35.5532 40.15H33.0032C32.7032 40.15 32.5532 40.01 32.5532 39.73V38.17C32.5532 37.39 32.7332 36.71 33.0932 36.13C33.4732 35.53 33.9232 35.05 34.4432 34.69C34.9832 34.31 35.5132 33.94 36.0332 33.58C36.5732 33.22 37.0232 32.78 37.3832 32.26C37.7632 31.74 37.9532 31.15 37.9532 30.49C37.9532 29.57 37.6632 28.81 37.0832 28.21C36.5232 27.59 35.6532 27.28 34.4732 27.28C32.9532 27.28 31.5932 27.85 30.3932 28.99C30.1332 29.25 29.9232 29.23 29.7632 28.93L28.4432 27.04C28.3032 26.84 28.3232 26.64 28.5032 26.44C29.1632 25.82 30.0232 25.29 31.0832 24.85C32.1432 24.41 33.3032 24.19 34.5632 24.19C36.4632 24.19 38.0732 24.74 39.3932 25.84C40.7332 26.92 41.4032 28.46 41.4032 30.46C41.4032 31.42 41.2132 32.25 40.8332 32.95C40.4732 33.65 40.0232 34.21 39.4832 34.63C38.9632 35.03 38.4332 35.41 37.8932 35.77C37.3732 36.13 36.9232 36.56 36.5432 37.06C36.1832 37.56 36.0032 38.15 36.0032 38.83V39.73C36.0032 40.01 35.8532 40.15 35.5532 40.15ZM35.8832 42.37C36.3032 42.79 36.5132 43.32 36.5132 43.96C36.5132 44.6 36.3032 45.13 35.8832 45.55C35.4832 45.95 34.9532 46.15 34.2932 46.15C33.6532 46.15 33.1332 45.95 32.7332 45.55C32.3332 45.13 32.1332 44.6 32.1332 43.96C32.1332 43.32 32.3332 42.79 32.7332 42.37C33.1332 41.95 33.6532 41.74 34.2932 41.74C34.9532 41.74 35.4832 41.95 35.8832 42.37Z" fill="#8FFFE4"/>
</svg>
