<svg width="70" height="70" viewBox="0 0 70 70" fill="none" xmlns="http://www.w3.org/2000/svg">
<rect x="1" y="1" width="68" height="68" rx="4" stroke="#3E4652" stroke-width="2"/>
<path d="M46.2821 27.0443C46.0155 26.9143 45.7309 26.7871 45.4372 26.6617C47.1409 23.3576 46.3425 19.3149 43.5111 16.9058C40.6796 14.497 36.5614 14.3573 33.5731 16.5684C30.5845 18.7798 29.5141 22.759 30.9896 26.1715C30.5653 26.3319 30.1489 26.5098 29.7389 26.7005C28.1035 25.2044 25.5386 25.0171 24.4523 25.011C23.7956 25.0077 23.2337 25.482 23.1269 26.13C23.0287 26.7578 22.989 27.3936 23.0088 28.0287C22.4741 28.0583 21.9421 28.1251 21.4162 28.2285C20.7701 28.3542 20.3113 28.9308 20.3341 29.5888C20.3616 30.8939 20.7008 32.1733 21.3231 33.3206C21.2472 33.4055 21.1703 33.4893 21.0949 33.5738C20.6694 34.0485 20.2289 34.5391 19.7796 34.9927C18.9181 35.6532 17.877 36.0372 16.7928 36.0943C16.2251 36.1715 15.7144 36.4805 15.3828 36.9475C15.051 37.4149 14.9274 37.9985 15.0415 38.5601L16.125 44.0116C16.2071 44.4713 16.6476 44.8353 17.4325 45.3444L17.5258 45.4057C18.1152 45.7865 18.7491 46.0931 19.4138 46.3179C19.8329 46.4674 20.242 46.644 20.6386 46.8466C21.551 47.3398 22.3429 48.0296 22.957 48.8658C23.0677 49.0211 23.1855 49.1696 23.3154 49.3209C24.4932 50.5482 26.0054 51.4024 27.6645 51.7773V53.0009C27.6645 54.1049 28.5596 55 29.6635 55H34.3284C35.4324 55 36.3277 54.1049 36.3277 53.0009V52.9161C36.8853 52.942 37.4424 52.9683 38.0049 52.9869C38.3102 52.9976 38.6141 53.0021 38.9145 53.0021C39.3944 53.0021 39.8626 52.9847 40.326 52.9588V53.0009C40.326 54.1049 41.221 55 42.325 55H46.9899C48.0942 55 48.9892 54.1049 48.9892 53.0009V50.4198C52.5208 48.2743 54.7653 44.5232 54.9865 40.3969C55.243 34.9594 51.8259 29.7172 46.2821 27.0443V27.0443ZM38.3267 16.3475C41.4343 16.3368 44.1352 18.4787 44.8325 21.5071C45.5296 24.5354 44.0376 27.6431 41.2381 28.9924C39.0875 28.5278 36.8795 28.3887 34.6874 28.579C32.2168 26.9714 31.0985 23.9296 31.9392 21.1041C32.7796 18.2789 35.379 16.3432 38.3267 16.3475ZM24.4484 26.3438C25.8455 26.3149 27.2237 26.6699 28.4327 27.371C27.7969 27.7322 27.1554 28.1486 26.5175 28.5992C25.8303 28.288 25.0936 28.1013 24.341 28.0473C24.319 27.4775 24.355 26.9067 24.4484 26.3438ZM21.6748 29.5348C22.3389 29.403 23.0149 29.339 23.6922 29.3435C23.704 29.3435 23.7141 29.3496 23.7254 29.3496C23.7367 29.3496 23.7666 29.3496 23.7873 29.3454C25.0536 29.277 26.2817 29.7926 27.1194 30.745C27.6755 31.3225 27.8329 32.1764 27.519 32.9143C26.9751 33.7926 26.0191 34.331 24.9862 34.3411C23.5 34.3411 21.828 32.8368 21.6675 29.5348H21.6748ZM53.6537 40.3335C53.4744 43.7374 51.742 46.8701 48.9544 48.8316C48.8812 48.5421 48.6216 48.3383 48.3226 48.3359C47.9547 48.3359 47.6564 48.6342 47.6564 49.0021V53.0009C47.6564 53.3688 47.3581 53.6672 46.9899 53.6672H42.325C41.9571 53.6672 41.6588 53.3688 41.6588 53.0009V51.0015C41.6588 50.6336 41.3604 50.3353 40.9922 50.3353C40.6244 50.3353 40.326 50.6336 40.326 51.0015V51.6181C39.5875 51.662 38.8291 51.6846 38.0488 51.6547C37.4716 51.6355 36.9 51.6092 36.3277 51.5827V51.0015C36.3277 50.6336 36.0291 50.3353 35.6612 50.3353C35.293 50.3353 34.9946 50.6336 34.9946 51.0015V53.0009C34.9946 53.3688 34.6963 53.6672 34.3284 53.6672H29.6635C29.2956 53.6672 28.9973 53.3688 28.9973 53.0009V49.6687C28.9973 49.3008 28.699 49.0021 28.3308 49.0021C27.9629 49.0021 27.6645 49.3008 27.6645 49.6687V50.3865C26.3897 50.0714 25.2317 49.399 24.3257 48.4485C24.2245 48.3304 24.1299 48.212 24.0359 48.0805C23.3029 47.0818 22.3572 46.2584 21.267 45.6702C20.821 45.4402 20.3604 45.2401 19.8882 45.0705C19.3226 44.881 18.782 44.6236 18.2781 44.3042L18.1576 44.2248C17.8922 44.0674 17.6433 43.8835 17.4151 43.6757L16.3489 38.295C16.3072 38.0925 16.352 37.8817 16.4731 37.7139C16.589 37.5488 16.7687 37.4399 16.9688 37.4131C18.1683 37.2554 19.7942 36.8695 20.7274 35.9289C21.1996 35.4512 21.6517 34.9482 22.0873 34.4631L22.1428 34.4009C22.8807 35.1907 23.9057 35.6495 24.9862 35.6739C26.5258 35.6663 27.9452 34.8414 28.7139 33.5073C29.2572 32.3188 29.0501 30.9216 28.185 29.9421C28.0379 29.7493 27.8744 29.5696 27.6963 29.4048C28.181 29.0775 28.6654 28.7679 29.1453 28.4973C29.9439 28.0531 30.7776 27.6742 31.6375 27.3643C31.9758 27.8823 32.3727 28.3594 32.8202 28.7865C32.0686 28.8991 31.5927 29.0055 31.5128 29.0235C31.154 29.1065 30.9301 29.4643 31.0131 29.8234C31.0958 30.1821 31.4539 30.4061 31.8126 30.3231C31.8959 30.3033 40.2412 28.4439 45.2572 32.2059C45.5515 32.4265 45.9695 32.367 46.1903 32.0726C46.4112 31.7779 46.3514 31.3603 46.057 31.1394C45.1132 30.443 44.0717 29.8902 42.9662 29.4988C43.63 29.025 44.2169 28.4518 44.7053 27.7987C45.0561 27.9448 45.3905 28.0906 45.7004 28.2413C50.7643 30.6858 53.8865 35.4314 53.6537 40.3335V40.3335Z" fill="#8FFFE4"/>
<path d="M31.752 43H29.768C29.6933 43 29.656 42.96 29.656 42.88V37.4C29.656 37.32 29.6933 37.28 29.768 37.28H31.752C32.4293 37.28 32.9573 37.4613 33.336 37.824C33.72 38.1813 33.912 38.704 33.912 39.392V40.912C33.912 41.5893 33.72 42.1067 33.336 42.464C32.9573 42.8213 32.4293 43 31.752 43ZM30.624 38.168V42.096H31.752C32.5253 42.096 32.912 41.704 32.912 40.92V39.384C32.912 38.5733 32.5253 38.168 31.752 38.168H30.624ZM35.2485 43H34.4645C34.3738 43 34.3418 42.9547 34.3685 42.864L36.2885 37.376C36.3152 37.312 36.3578 37.28 36.4165 37.28H37.3285C37.3872 37.28 37.4298 37.312 37.4565 37.376L39.3765 42.864C39.4032 42.9547 39.3712 43 39.2805 43H38.4965C38.4218 43 38.3765 42.968 38.3605 42.904L37.9685 41.696H35.7765L35.3845 42.904C35.3632 42.968 35.3178 43 35.2485 43ZM36.8565 38.336L36.0485 40.824H37.6965L36.8885 38.336H36.8565ZM44.1977 43H43.2937C43.235 43 43.1897 42.9733 43.1577 42.92L41.7577 40.912H41.0457V42.88C41.0457 42.96 41.0084 43 40.9337 43H40.1977C40.123 43 40.0857 42.96 40.0857 42.88V37.4C40.0857 37.32 40.123 37.28 40.1977 37.28H42.0537C42.7097 37.28 43.219 37.4427 43.5817 37.768C43.9497 38.088 44.1337 38.5333 44.1337 39.104C44.1337 39.5413 44.0164 39.9067 43.7817 40.2C43.5524 40.4933 43.227 40.696 42.8057 40.808L44.2697 42.856C44.3284 42.952 44.3044 43 44.1977 43ZM42.0537 38.168H41.0457V40.048H42.0537C42.427 40.048 42.7017 39.9733 42.8777 39.824C43.059 39.6693 43.1497 39.432 43.1497 39.112C43.1497 38.7867 43.059 38.5493 42.8777 38.4C42.7017 38.2453 42.427 38.168 42.0537 38.168Z" fill="#8FFFE4"/>
</svg>
