<svg width="80" height="80" viewBox="0 0 80 80" fill="none" xmlns="http://www.w3.org/2000/svg">
<circle cx="40" cy="40" r="39" stroke="#3E4652" stroke-width="2"/>
<path d="M38.8591 44.25C38.8591 46.57 38.1691 48.33 36.7891 49.53C35.4091 50.73 33.7191 51.33 31.7191 51.33C29.6991 51.33 27.9891 50.73 26.5891 49.53C25.2091 48.33 24.5191 46.57 24.5191 44.25V36.24C24.5191 33.94 25.2091 32.2 26.5891 31.02C27.9891 29.82 29.6991 29.22 31.7191 29.22C33.7191 29.22 35.4091 29.82 36.7891 31.02C38.1691 32.2 38.8591 33.94 38.8591 36.24V44.25ZM27.0091 44.34C27.0091 45.9 27.4591 47.06 28.3591 47.82C29.2591 48.56 30.3791 48.93 31.7191 48.93C33.0391 48.93 34.1391 48.56 35.0191 47.82C35.9191 47.06 36.3691 45.9 36.3691 44.34V36.33C36.3691 34.71 35.9291 33.52 35.0491 32.76C34.1691 32 33.0591 31.62 31.7191 31.62C30.3591 31.62 29.2291 32 28.3291 32.76C27.4491 33.52 27.0091 34.71 27.0091 36.33V44.34ZM55.6996 51H42.3796C42.1596 51 42.0496 50.89 42.0496 50.67V49.44C42.0496 49.26 42.1096 49.12 42.2296 49.02L48.0796 42.87C49.7996 41.07 51.0596 39.6 51.8596 38.46C52.6596 37.3 53.0596 36.16 53.0596 35.04C53.0596 34.08 52.7396 33.26 52.0996 32.58C51.4796 31.9 50.5296 31.56 49.2496 31.56C47.3296 31.56 45.5696 32.44 43.9696 34.2C43.8296 34.38 43.6696 34.38 43.4896 34.2L42.5296 32.88C42.4096 32.72 42.4096 32.56 42.5296 32.4C44.4096 30.28 46.6396 29.22 49.2196 29.22C51.1196 29.22 52.6496 29.74 53.8096 30.78C54.9896 31.82 55.5796 33.23 55.5796 35.01C55.5796 36.41 55.1696 37.77 54.3496 39.09C53.5296 40.39 52.1796 42.06 50.2996 44.1C48.8196 45.74 47.3496 47.27 45.8896 48.69H55.6996C55.9196 48.69 56.0296 48.81 56.0296 49.05V50.67C56.0296 50.89 55.9196 51 55.6996 51Z" fill="#8FFFE4"/>
</svg>
