<svg width="80" height="80" viewBox="0 0 80 80" fill="none" xmlns="http://www.w3.org/2000/svg">
<circle cx="40" cy="40" r="39" stroke="#3E4652" stroke-width="2"/>
<path d="M38.8005 44.25C38.8005 46.57 38.1105 48.33 36.7305 49.53C35.3505 50.73 33.6605 51.33 31.6605 51.33C29.6405 51.33 27.9305 50.73 26.5305 49.53C25.1505 48.33 24.4605 46.57 24.4605 44.25V36.24C24.4605 33.94 25.1505 32.2 26.5305 31.02C27.9305 29.82 29.6405 29.22 31.6605 29.22C33.6605 29.22 35.3505 29.82 36.7305 31.02C38.1105 32.2 38.8005 33.94 38.8005 36.24V44.25ZM26.9505 44.34C26.9505 45.9 27.4005 47.06 28.3005 47.82C29.2005 48.56 30.3205 48.93 31.6605 48.93C32.9805 48.93 34.0805 48.56 34.9605 47.82C35.8605 47.06 36.3105 45.9 36.3105 44.34V36.33C36.3105 34.71 35.8705 33.52 34.9905 32.76C34.1105 32 33.0005 31.62 31.6605 31.62C30.3005 31.62 29.1705 32 28.2705 32.76C27.3905 33.52 26.9505 34.71 26.9505 36.33V44.34ZM53.931 51H52.131C51.911 51 51.801 50.89 51.801 50.67V45.99H41.991C41.751 45.99 41.631 45.88 41.631 45.66V44.34C41.631 44.2 41.671 44.06 41.751 43.92L49.551 29.79C49.631 29.63 49.761 29.55 49.941 29.55H52.041C52.341 29.55 52.421 29.69 52.281 29.97L44.691 43.71H51.801V39.12C51.801 38.9 51.911 38.79 52.131 38.79H53.931C54.171 38.79 54.291 38.9 54.291 39.12V43.71H56.301C56.521 43.71 56.631 43.82 56.631 44.04V45.66C56.631 45.88 56.521 45.99 56.301 45.99H54.291V50.67C54.291 50.89 54.171 51 53.931 51Z" fill="white"/>
</svg>
